<?xml version="1.0" encoding="utf-8"?>
<svg viewBox="64.89998626708984 139.69993591308594 265.0999755859375 271.79998779296875" width="265.0999755859375" height="271.79998779296875" xmlns="http://www.w3.org/2000/svg"><path class="st2" d="M304.6,363.1C304.6,363.1,304.7,363.1,304.6,363.1c3.8-4.7,18.7-24.1,23.3-50.2c2.1-13.8,1.6-28.1-1.8-42.2&#10;&#9;&#9;c-1.3-4.7-3-9.5-4.7-14.2c-5.2-12.1-12.1-22.8-22-31.9c-4.7-3.9-9-7.7-14.2-10.8c-3.9-2.2-7.7-4.3-11.6-6c-3-1.3-6.5-2.2-9.5-3.4&#10;&#9;&#9;c-4.3-1.3-9-2.2-13.3-2.6c-13.8-1.3-27.6,0.4-40,6.5c-8.6,4.3-16.4,9.9-22.8,17.2c-2.6,3-4.7,6-6.5,9.5&#10;&#9;&#9;c-7.7,15.1-8.6,32.7-0.9,47.8c3.4,7.3,9.5,14.2,17.7,17.2c7.7,2.6,15.9,1.7,22.8-2.6c2.6-1.7,4.7-4.3,6-7.3&#10;&#9;&#9;c2.2-6.5-3.9-10.8-4.7-16.4c-1.7-11.6,12.9-14.2,22.4-11.6c2.2,0.4,3.9,1.3,6,2.6c2.6,1.7,4.7,3.9,6.9,6.5&#10;&#9;&#9;c2.6,4.3,4.3,8.2,5.2,12.9c1.7,9,0,17.7-3.9,25.8c-1.3,2.2-2.6,4.7-4.3,6.9c-6.5,8.2-13.8,14.6-23.2,18.5c-5.2,2.2-10.3,3-15.5,3.9&#10;&#9;&#9;c-7.7,0.4-15.5,0-23.2-2.2c-6.5-1.7-12.1-4.7-17.7-8.2c-2.6-1.7-4.7-3.4-7.3-5.2c-21.5-18.5-30.6-46.1-25.4-74&#10;&#9;&#9;c2.6-14.6,8.6-27.6,17.7-39.2c6.5-8.2,13.3-14.6,22-20.2c21.1-13.3,44.3-18.9,68.9-15.9c10.8,1.3,21.1,4.3,31,8.6&#10;&#9;&#9;c14.8,6.7,27.7,16.2,38.6,28.5c-22.9-42.7-68-71.7-119.8-71.7c-75.1,0-135.9,60.8-135.9,135.9s60.8,135.9,135.9,135.9&#10;&#9;&#9;c41.5,0,78.7-18.6,103.6-47.9C304.3,363.5,304.4,363.3,304.6,363.1z" style="fill: rgb(204, 204, 204); opacity: 1;" transform="matrix(1, 0, 0, 1, 0, 0)"/></svg>